<svg xmlns="http://www.w3.org/2000/svg" xmlns:xlink="http://www.w3.org/1999/xlink" contentStyleType="text/css" height="444px" preserveAspectRatio="none" style="width:164px;height:444px;background:#1B1B1B;" version="1.1" viewBox="0 0 164 444" width="164px" zoomAndPan="magnify"><defs/><g><rect fill="#1B1B1B" height="444" style="stroke:none;stroke-width:1.0;" width="164" x="0" y="0"/><ellipse cx="82.4" cy="16" fill="#222222" rx="10" ry="10" style="stroke:#222222;stroke-width:1.0;"/><g id="IniciandoRuta"><rect fill="#313139" height="50" rx="12.5" ry="12.5" style="stroke:#E7E7E7;stroke-width:0.5;" width="116.0518" x="24.38" y="86"/><line style="stroke:#E7E7E7;stroke-width:0.5;" x1="24.38" x2="140.4318" y1="112.2969" y2="112.2969"/><text fill="#FFFFFF" font-family="sans-serif" font-size="14" lengthAdjust="spacing" textLength="96.0518" x="34.38" y="103.9951">IniciandoRuta</text></g><g id="PasandoPorParada"><rect fill="#313139" height="50" rx="12.5" ry="12.5" style="stroke:#E7E7E7;stroke-width:0.5;" width="150.8057" x="7" y="196"/><line style="stroke:#E7E7E7;stroke-width:0.5;" x1="7" x2="157.8057" y1="222.2969" y2="222.2969"/><text fill="#FFFFFF" font-family="sans-serif" font-size="14" lengthAdjust="spacing" textLength="130.8057" x="17" y="213.9951">PasandoPorParada</text></g><g id="TerminandoRuta"><rect fill="#313139" height="50" rx="12.5" ry="12.5" style="stroke:#E7E7E7;stroke-width:0.5;" width="136.8945" x="13.96" y="306"/><line style="stroke:#E7E7E7;stroke-width:0.5;" x1="13.96" x2="150.8545" y1="332.2969" y2="332.2969"/><text fill="#FFFFFF" font-family="sans-serif" font-size="14" lengthAdjust="spacing" textLength="116.8945" x="23.96" y="323.9951">TerminandoRuta</text></g><ellipse cx="82.4" cy="427" fill="none" rx="11" ry="11" style="stroke:#222222;stroke-width:1.0;"/><ellipse cx="82.4" cy="427" fill="#222222" rx="6" ry="6" style="stroke:#222222;stroke-width:1.0;"/><!--link *start* to IniciandoRuta--><g id="link_*start*_IniciandoRuta"><path d="M82.4,26.26 C82.4,39.95 82.4,60.07 82.4,79.52 " fill="none" id="*start*-to-IniciandoRuta" style="stroke:#E7E7E7;stroke-width:1.0;"/><polygon fill="#E7E7E7" points="82.4,85.52,86.4,76.52,82.4,80.52,78.4,76.52,82.4,85.52" style="stroke:#E7E7E7;stroke-width:1.0;"/></g><!--link IniciandoRuta to PasandoPorParada--><g id="link_IniciandoRuta_PasandoPorParada"><path d="M82.4,136.24 C82.4,154.02 82.4,172.08 82.4,189.84 " fill="none" id="IniciandoRuta-to-PasandoPorParada" style="stroke:#E7E7E7;stroke-width:1.0;"/><polygon fill="#E7E7E7" points="82.4,195.84,86.4,186.84,82.4,190.84,78.4,186.84,82.4,195.84" style="stroke:#E7E7E7;stroke-width:1.0;"/></g><!--link PasandoPorParada to TerminandoRuta--><g id="link_PasandoPorParada_TerminandoRuta"><path d="M82.4,246.24 C82.4,264.02 82.4,282.08 82.4,299.84 " fill="none" id="PasandoPorParada-to-TerminandoRuta" style="stroke:#E7E7E7;stroke-width:1.0;"/><polygon fill="#E7E7E7" points="82.4,305.84,86.4,296.84,82.4,300.84,78.4,296.84,82.4,305.84" style="stroke:#E7E7E7;stroke-width:1.0;"/></g><!--link TerminandoRuta to *end*--><g id="link_TerminandoRuta_*end*"><path d="M82.4,356.21 C82.4,375.57 82.4,395.75 82.4,409.9 " fill="none" id="TerminandoRuta-to-*end*" style="stroke:#E7E7E7;stroke-width:1.0;"/><polygon fill="#E7E7E7" points="82.4,415.9,86.4,406.9,82.4,410.9,78.4,406.9,82.4,415.9" style="stroke:#E7E7E7;stroke-width:1.0;"/></g><!--SRC=[YzQALT3LjLFmpCjCpapCIyaFAYr9vE92uO8L12GMW_W1-KK1YKM9AK0rw29WPI6fHRcPUGY3KFbW9T5QiG00]--></g></svg>