<svg xmlns="http://www.w3.org/2000/svg" xmlns:xlink="http://www.w3.org/1999/xlink" contentStyleType="text/css" height="554px" preserveAspectRatio="none" style="width:739px;height:554px;background:#FFFFFF;" version="1.1" viewBox="0 0 739 554" width="739px" zoomAndPan="magnify"><defs/><g><!--class Ayuntamiento--><g id="elem_Ayuntamiento"><rect codeLine="4" fill="#F1F1F1" height="26.2969" id="Ayuntamiento" rx="2.5" ry="2.5" style="stroke:#181818;stroke-width:0.5;" width="104.7451" x="335.5" y="7"/><text fill="#000000" font-family="sans-serif" font-size="14" lengthAdjust="spacing" textLength="98.7451" x="338.5" y="24.9951">Ayuntamiento</text></g><!--class Incidencia--><g id="elem_Incidencia"><rect codeLine="5" fill="#F1F1F1" height="26.2969" id="Incidencia" rx="2.5" ry="2.5" style="stroke:#181818;stroke-width:0.5;" width="77.1279" x="494.5" y="110"/><text fill="#000000" font-family="sans-serif" font-size="14" lengthAdjust="spacing" textLength="71.1279" x="497.5" y="127.9951">Incidencia</text></g><!--class Abonos--><g id="elem_Abonos"><rect codeLine="6" fill="#F1F1F1" height="26.2969" id="Abonos" rx="2.5" ry="2.5" style="stroke:#181818;stroke-width:0.5;" width="57.7617" x="148" y="110"/><text fill="#000000" font-family="sans-serif" font-size="14" lengthAdjust="spacing" textLength="51.7617" x="151" y="127.9951">Abonos</text></g><!--class Ruta--><g id="elem_Ruta"><rect codeLine="7" fill="#F1F1F1" height="26.2969" id="Ruta" rx="2.5" ry="2.5" style="stroke:#181818;stroke-width:0.5;" width="38.6689" x="437.5" y="213"/><text fill="#000000" font-family="sans-serif" font-size="14" lengthAdjust="spacing" textLength="32.6689" x="440.5" y="230.9951">Ruta</text></g><!--class Tarifas--><g id="elem_Tarifas"><rect codeLine="8" fill="#F1F1F1" height="26.2969" id="Tarifas" rx="2.5" ry="2.5" style="stroke:#181818;stroke-width:0.5;" width="53.5781" x="273" y="522"/><text fill="#000000" font-family="sans-serif" font-size="14" lengthAdjust="spacing" textLength="47.5781" x="276" y="539.9951">Tarifas</text></g><!--class Vehiculo--><g id="elem_Vehiculo"><rect codeLine="9" fill="#F1F1F1" height="26.2969" id="Vehiculo" rx="2.5" ry="2.5" style="stroke:#181818;stroke-width:0.5;" width="65.9785" x="177" y="316"/><text fill="#000000" font-family="sans-serif" font-size="14" lengthAdjust="spacing" textLength="59.9785" x="180" y="333.9951">Vehiculo</text></g><!--class Paradas--><g id="elem_Paradas"><rect codeLine="10" fill="#F1F1F1" height="26.2969" id="Paradas" rx="2.5" ry="2.5" style="stroke:#181818;stroke-width:0.5;" width="62.1162" x="540" y="316"/><text fill="#000000" font-family="sans-serif" font-size="14" lengthAdjust="spacing" textLength="56.1162" x="543" y="333.9951">Paradas</text></g><!--class Horarios--><g id="elem_Horarios"><rect codeLine="11" fill="#F1F1F1" height="26.2969" id="Horarios" rx="2.5" ry="2.5" style="stroke:#181818;stroke-width:0.5;" width="64.9326" x="540.5" y="522"/><text fill="#000000" font-family="sans-serif" font-size="14" lengthAdjust="spacing" textLength="58.9326" x="543.5" y="539.9951">Horarios</text></g><!--class Personas--><g id="elem_Personas"><rect codeLine="12" fill="#F1F1F1" height="26.2969" id="Personas" rx="2.5" ry="2.5" style="stroke:#181818;stroke-width:0.5;" width="69.417" x="112.5" y="419"/><text fill="#000000" font-family="sans-serif" font-size="14" lengthAdjust="spacing" textLength="63.417" x="115.5" y="436.9951">Personas</text></g><!--class Conductor--><g id="elem_Conductor"><rect codeLine="13" fill="#F1F1F1" height="26.2969" id="Conductor" rx="2.5" ry="2.5" style="stroke:#181818;stroke-width:0.5;" width="78.4814" x="64" y="316"/><text fill="#000000" font-family="sans-serif" font-size="14" lengthAdjust="spacing" textLength="72.4814" x="67" y="333.9951">Conductor</text></g><!--class Pasajero--><g id="elem_Pasajero"><rect codeLine="14" fill="#F1F1F1" height="26.2969" id="Pasajero" rx="2.5" ry="2.5" style="stroke:#181818;stroke-width:0.5;" width="65.7188" x="11" y="7"/><text fill="#000000" font-family="sans-serif" font-size="14" lengthAdjust="spacing" textLength="59.7188" x="14" y="24.9951">Pasajero</text></g><!--class Bus--><g id="elem_Bus"><rect codeLine="15" fill="#F1F1F1" height="26.2969" id="Bus" rx="2.5" ry="2.5" style="stroke:#181818;stroke-width:0.5;" width="31.7715" x="142" y="213"/><text fill="#000000" font-family="sans-serif" font-size="14" lengthAdjust="spacing" textLength="25.7715" x="145" y="230.9951">Bus</text></g><!--class Tren--><g id="elem_Tren"><rect codeLine="16" fill="#F1F1F1" height="26.2969" id="Tren" rx="2.5" ry="2.5" style="stroke:#181818;stroke-width:0.5;" width="37.7939" x="209" y="213"/><text fill="#000000" font-family="sans-serif" font-size="14" lengthAdjust="spacing" textLength="31.7939" x="212" y="230.9951">Tren</text></g><!--class Metro--><g id="elem_Metro"><rect codeLine="17" fill="#F1F1F1" height="26.2969" id="Metro" rx="2.5" ry="2.5" style="stroke:#181818;stroke-width:0.5;" width="46.5029" x="59.5" y="213"/><text fill="#000000" font-family="sans-serif" font-size="14" lengthAdjust="spacing" textLength="40.5029" x="62.5" y="230.9951">Metro</text></g><!--link Ayuntamiento to Incidencia--><g id="link_Ayuntamiento_Incidencia"><path codeLine="20" d="M405.49,33.18 C433.36,52.6 482.6166,86.9007 510.5266,106.3407 " fill="none" id="Ayuntamiento-to-Incidencia" style="stroke:#181818;stroke-width:1.0;"/><polygon fill="#181818" points="515.45,109.77,510.3511,101.3438,511.3472,106.9123,505.7787,107.9084,515.45,109.77" style="stroke:#181818;stroke-width:1.0;"/><text fill="#000000" font-family="sans-serif" font-size="13" lengthAdjust="spacing" textLength="69.5259" x="470" y="76.0669">administra</text></g><!--link Ayuntamiento to Abonos--><g id="link_Ayuntamiento_Abonos"><path codeLine="21" d="M335.22,27.48 C303.28,33.19 262.72,43.75 231,63 C211.3,74.96 197.8786,91.3031 188.4586,104.7731 " fill="none" id="Ayuntamiento-to-Abonos" style="stroke:#181818;stroke-width:1.0;"/><polygon fill="#181818" points="185.02,109.69,193.4558,104.607,187.8855,105.5926,186.8999,100.0222,185.02,109.69" style="stroke:#181818;stroke-width:1.0;"/><text fill="#000000" font-family="sans-serif" font-size="13" lengthAdjust="spacing" textLength="41.0186" x="232" y="76.0669">ofrece</text></g><!--link Ayuntamiento to Ruta--><g id="link_Ayuntamiento_Ruta"><path codeLine="22" d="M388.45,33.1 C389.56,54.46 393.34,99.96 406,136 C416.33,165.4 432.9149,191.2947 444.5649,207.8347 " fill="none" id="Ayuntamiento-to-Ruta" style="stroke:#181818;stroke-width:1.0;"/><polygon fill="#181818" points="448.02,212.74,446.1076,203.0786,445.1408,208.6522,439.5671,207.6854,448.02,212.74" style="stroke:#181818;stroke-width:1.0;"/><text fill="#000000" font-family="sans-serif" font-size="13" lengthAdjust="spacing" textLength="69.5259" x="407" y="127.5669">administra</text></g><!--link Ayuntamiento to Tarifas--><g id="link_Ayuntamiento_Tarifas"><path codeLine="23" d="M366.25,33.28 C340.19,49.79 300,81.77 300,122 C300,122 300,122 300,433 C300,465.09 300,496.91 300,515.87 " fill="none" id="Ayuntamiento-to-Tarifas" style="stroke:#181818;stroke-width:1.0;"/><polygon fill="#181818" points="300,521.87,304,512.87,300,516.87,296,512.87,300,521.87" style="stroke:#181818;stroke-width:1.0;"/><text fill="#000000" font-family="sans-serif" font-size="13" lengthAdjust="spacing" textLength="40.6758" x="301" y="282.0669">define</text></g><!--link Ayuntamiento to Horarios--><g id="link_Ayuntamiento_Horarios"><path codeLine="24" d="M440.6,27.59 C527.13,39.92 690,70.03 690,122 C690,122 690,122 690,433 C690,477.81 645.7172,504.7586 611.0972,519.7286 " fill="none" id="Ayuntamiento-to-Horarios" style="stroke:#181818;stroke-width:1.0;"/><polygon fill="#181818" points="605.59,522.11,615.4384,522.2094,610.1793,520.1255,612.2632,514.8665,605.59,522.11" style="stroke:#181818;stroke-width:1.0;"/><text fill="#000000" font-family="sans-serif" font-size="13" lengthAdjust="spacing" textLength="40.6758" x="691" y="282.0669">define</text></g><!--link Ruta to Paradas--><g id="link_Ruta_Paradas"><path codeLine="25" d="M473.46,239.02 C484.37,247.17 498.85,258.36 511,269 C528.59,284.4 543.4639,299.2722 555.2739,311.5122 " fill="none" id="Ruta-to-Paradas" style="stroke:#181818;stroke-width:1.0;"/><polygon fill="#181818" points="559.44,315.83,556.0694,306.5759,555.9682,312.2318,550.3123,312.1307,559.44,315.83" style="stroke:#181818;stroke-width:1.0;"/><text fill="#000000" font-family="sans-serif" font-size="13" lengthAdjust="spacing" textLength="56.2847" x="529" y="282.0669">contiene</text></g><!--link Ruta to Horarios--><g id="link_Ruta_Horarios"><path codeLine="26" d="M461.55,239.03 C480.06,288.03 547.5487,466.6475 566.2387,516.0975 " fill="none" id="Ruta-to-Horarios" style="stroke:#181818;stroke-width:1.0;"/><polygon fill="#181818" points="568.36,521.71,568.9197,511.8771,566.5923,517.0329,561.4364,514.7054,568.36,521.71" style="stroke:#181818;stroke-width:1.0;"/><text fill="#000000" font-family="sans-serif" font-size="13" lengthAdjust="spacing" textLength="34.874" x="518" y="385.0669">sigue</text></g><!--link Paradas to Horarios--><g id="link_Paradas_Horarios"><path codeLine="27" d="M571.12,342.15 C571.47,378.43 572.472,479.7103 572.822,515.9103 " fill="none" id="Paradas-to-Horarios" style="stroke:#181818;stroke-width:1.0;stroke-dasharray:7.0,7.0;"/><polygon fill="#181818" points="572.88,521.91,576.7928,512.8717,572.8317,516.9102,568.7932,512.9491,572.88,521.91" style="stroke:#181818;stroke-width:1.0;"/><text fill="#000000" font-family="sans-serif" font-size="13" lengthAdjust="spacing" textLength="62.3213" x="573" y="436.5669">muestran</text></g><!--link Ruta to Vehiculo--><g id="link_Ruta_Vehiculo"><path codeLine="28" d="M437.27,237.74 C409.82,252.57 361.43,278.39 343,286 C309.77,299.73 276.1196,310.0487 248.8596,317.6487 " fill="none" id="Ruta-to-Vehiculo" style="stroke:#181818;stroke-width:1.0;"/><polygon fill="#181818" points="243.08,319.26,252.8236,320.6961,247.8963,317.9172,250.6752,312.9899,243.08,319.26" style="stroke:#181818;stroke-width:1.0;"/><text fill="#000000" font-family="sans-serif" font-size="13" lengthAdjust="spacing" textLength="22.9785" x="377" y="282.0669">usa</text></g><!--link Vehiculo to Personas--><g id="link_Vehiculo_Personas"><path codeLine="29" d="M202.27,342.38 C190.12,361.87 169.8462,394.3796 157.7662,413.7396 " fill="none" id="Vehiculo-to-Personas" style="stroke:#181818;stroke-width:1.0;"/><polygon fill="#181818" points="154.59,418.83,162.7479,413.3119,157.2368,414.588,155.9607,409.077,154.59,418.83" style="stroke:#181818;stroke-width:1.0;"/><text fill="#000000" font-family="sans-serif" font-size="13" lengthAdjust="spacing" textLength="68.0342" x="184" y="385.0669">transporta</text></g><!--link Conductor to Personas--><g id="link_Conductor_Personas"><path codeLine="30" d="M108.4,342.38 C116.89,361.87 126.0839,382.9667 134.5139,402.3267 " fill="none" id="Conductor-to-Personas" style="stroke:#181818;stroke-width:1.0;"/><polygon fill="none" points="141.7,418.83,140.015,399.9313,129.0128,404.722,141.7,418.83" style="stroke:#181818;stroke-width:1.0;"/></g><!--link Pasajero to Personas--><g id="link_Pasajero_Personas"><path codeLine="31" d="M36.13,33.2 C25,51.64 6,88.09 6,122 C6,122 6,122 6,330 C6,382.09 53.1528,404.7156 94.9128,417.2756 " fill="none" id="Pasajero-to-Personas" style="stroke:#181818;stroke-width:1.0;"/><polygon fill="none" points="112.15,422.46,96.6409,411.5299,93.1846,423.0214,112.15,422.46" style="stroke:#181818;stroke-width:1.0;"/></g><!--link Pasajero to Abonos--><g id="link_Pasajero_Abonos"><path codeLine="32" d="M57.57,33.23 C71.41,45.5 93.67,64.73 114,80 C128.19,90.66 139.8777,98.5135 152.5377,106.6235 " fill="none" id="Pasajero-to-Abonos" style="stroke:#181818;stroke-width:1.0;"/><polygon fill="#181818" points="157.59,109.86,152.1693,101.6371,153.3798,107.1629,147.854,108.3735,157.59,109.86" style="stroke:#181818;stroke-width:1.0;"/><text fill="#000000" font-family="sans-serif" font-size="13" lengthAdjust="spacing" textLength="57.6621" x="115" y="76.0669">adquiere</text></g><!--link Ruta to Tarifas--><g id="link_Ruta_Tarifas"><path codeLine="33" d="M451.52,239.09 C434.25,277 378.93,396.65 326,492 C320.34,502.2 316.599,508.3594 311.289,516.6394 " fill="none" id="Ruta-to-Tarifas" style="stroke:#181818;stroke-width:1.0;"/><polygon fill="#181818" points="308.05,521.69,316.2756,516.2734,310.7492,517.4811,309.5414,511.9547,308.05,521.69" style="stroke:#181818;stroke-width:1.0;"/><text fill="#000000" font-family="sans-serif" font-size="13" lengthAdjust="spacing" textLength="32.9443" x="388" y="385.0669">tiene</text></g><!--link Bus to Vehiculo--><g id="link_Bus_Vehiculo"><path codeLine="34" d="M164.38,239.38 C174.41,258.87 185.5355,280.464 195.4955,299.824 " fill="none" id="Bus-to-Vehiculo" style="stroke:#181818;stroke-width:1.0;"/><polygon fill="none" points="203.73,315.83,200.8308,297.0791,190.1602,302.5688,203.73,315.83" style="stroke:#181818;stroke-width:1.0;"/></g><!--link Tren to Vehiculo--><g id="link_Tren_Vehiculo"><path codeLine="35" d="M225.79,239.38 C222.32,258.87 218.7779,278.7492 215.3279,298.1092 " fill="none" id="Tren-to-Vehiculo" style="stroke:#181818;stroke-width:1.0;"/><polygon fill="none" points="212.17,315.83,221.2348,299.1618,209.421,297.0565,212.17,315.83" style="stroke:#181818;stroke-width:1.0;"/></g><!--link Metro to Vehiculo--><g id="link_Metro_Vehiculo"><path codeLine="36" d="M98.57,239.38 C123.08,258.87 156.2728,285.2651 180.6128,304.6251 " fill="none" id="Metro-to-Vehiculo" style="stroke:#181818;stroke-width:1.0;"/><polygon fill="none" points="194.7,315.83,184.3478,299.9293,176.8778,309.3208,194.7,315.83" style="stroke:#181818;stroke-width:1.0;"/></g><!--link Incidencia to Ruta--><g id="link_Incidencia_Ruta"><path codeLine="37" d="M523.68,136.38 C509.02,155.87 484.3263,188.6748 469.7663,208.0348 " fill="none" id="Incidencia-to-Ruta" style="stroke:#181818;stroke-width:1.0;"/><polygon fill="#181818" points="466.16,212.83,474.7663,208.0414,469.1653,208.834,468.3727,203.2329,466.16,212.83" style="stroke:#181818;stroke-width:1.0;"/><text fill="#000000" font-family="sans-serif" font-size="13" lengthAdjust="spacing" textLength="62.3975" x="500" y="179.0669">ocurre en</text></g><!--link Personas to Tarifas--><g id="link_Personas_Tarifas"><path codeLine="38" d="M163.75,445.02 C180.77,457.14 207.96,476.25 232,492 C247.9,502.42 261.127,510.6031 274.757,518.8531 " fill="none" id="Personas-to-Tarifas" style="stroke:#181818;stroke-width:1.0;"/><polygon fill="#181818" points="279.89,521.96,274.2618,513.8777,275.6125,519.3709,270.1193,520.7216,279.89,521.96" style="stroke:#181818;stroke-width:1.0;"/><text fill="#000000" font-family="sans-serif" font-size="13" lengthAdjust="spacing" textLength="40.6758" x="233" y="488.0669">pagan</text></g><!--SRC=[VLAxRiCm3Dpr5Ve1-mCy56Ypj4E1e0YwCp8Tgx39X9A60FtuoW_9Cj9s4KJUaTJnrDiMDOvNVzSZZcSKfrK_vOmLCw1JoWpWd7w-1_8mMYJFUiszaOdCU80wBAGp4xir-0WUz7e_WTWEN0e_iRSc3Bo6Hn1eD_IL9T9pdsDy4zC67vZQO3oBpkKElb0unIyXSq-2bExlw2UEKZifLVLKwD2DXdQqP9qNU2Gk-YA9Eq63ZuHPy_yzqYeQtM9dwPScIVz6cTjEKDfKemsJZoK5LfGvUmce4hckwnqw1foUHbjfyYE2mO7AuJmohR_HKv6xilZeTpQXghutaifU_9akjWZjBLYKGiEsd4NSPENSAV-OsT5zQZ5sdoiiBNnX4qJYToULLUsdNk42z0C0]--></g></svg>