<svg xmlns="http://www.w3.org/2000/svg" xmlns:xlink="http://www.w3.org/1999/xlink" contentStyleType="text/css" height="488px" preserveAspectRatio="none" style="width:689px;height:488px;background:#FFFFFF;" version="1.1" viewBox="0 0 689 488" width="689px" zoomAndPan="magnify"><defs/><g><g id="elem_Ruta1"><rect fill="#F1F1F1" height="60.8906" style="stroke:#181818;stroke-width:0.5;" width="227.9814" x="197" y="283"/><text fill="#000000" font-family="sans-serif" font-size="14" lengthAdjust="spacing" textLength="41.5762" x="290.2026" y="297.9951">Ruta1</text><line style="stroke:#181818;stroke-width:0.5;" x1="198" x2="423.9814" y1="303.2969" y2="303.2969"/><text fill="#000000" font-family="sans-serif" font-size="14" lengthAdjust="spacing" textLength="215.9814" x="203" y="320.292">nombre = "Ruta Centro-Norte"</text><text fill="#000000" font-family="sans-serif" font-size="14" lengthAdjust="spacing" textLength="140.6973" x="203" y="336.5889">distancia = "15 km"</text></g><g id="elem_Vehiculo1"><rect fill="#F1F1F1" height="60.8906" style="stroke:#181818;stroke-width:0.5;" width="171.7627" x="225" y="145"/><text fill="#000000" font-family="sans-serif" font-size="14" lengthAdjust="spacing" textLength="68.8857" x="276.4385" y="159.9951">Vehiculo1</text><line style="stroke:#181818;stroke-width:0.5;" x1="226" x2="395.7627" y1="165.2969" y2="165.2969"/><text fill="#000000" font-family="sans-serif" font-size="14" lengthAdjust="spacing" textLength="86.1123" x="231" y="182.292">tipo = "Bus"</text><text fill="#000000" font-family="sans-serif" font-size="14" lengthAdjust="spacing" textLength="159.7627" x="231" y="198.5889">matricula = "AB-1234"</text></g><g id="elem_Conductor1"><rect fill="#F1F1F1" height="60.8906" style="stroke:#181818;stroke-width:0.5;" width="197.165" x="212.5" y="7"/><text fill="#000000" font-family="sans-serif" font-size="14" lengthAdjust="spacing" textLength="81.3887" x="270.3882" y="21.9951">Conductor1</text><line style="stroke:#181818;stroke-width:0.5;" x1="213.5" x2="408.665" y1="27.2969" y2="27.2969"/><text fill="#000000" font-family="sans-serif" font-size="14" lengthAdjust="spacing" textLength="185.165" x="218.5" y="44.292">nombre = "Carlos G&#243;mez"</text><text fill="#000000" font-family="sans-serif" font-size="14" lengthAdjust="spacing" textLength="144.0264" x="218.5" y="60.5889">licencia = "L-98765"</text></g><g id="elem_Pasajero1"><rect fill="#F1F1F1" height="60.8906" style="stroke:#181818;stroke-width:0.5;" width="181.9961" x="7" y="145"/><text fill="#000000" font-family="sans-serif" font-size="14" lengthAdjust="spacing" textLength="68.626" x="63.6851" y="159.9951">Pasajero1</text><line style="stroke:#181818;stroke-width:0.5;" x1="8" x2="187.9961" y1="165.2969" y2="165.2969"/><text fill="#000000" font-family="sans-serif" font-size="14" lengthAdjust="spacing" textLength="158.0947" x="13" y="182.292">nombre = "Ana P&#233;rez"</text><text fill="#000000" font-family="sans-serif" font-size="14" lengthAdjust="spacing" textLength="169.9961" x="13" y="198.5889">idAbono = "ABN-00123"</text></g><g id="elem_Abono1"><rect fill="#F1F1F1" height="60.8906" style="stroke:#181818;stroke-width:0.5;" width="130.542" x="30.5" y="283"/><text fill="#000000" font-family="sans-serif" font-size="14" lengthAdjust="spacing" textLength="53.375" x="69.0835" y="297.9951">Abono1</text><line style="stroke:#181818;stroke-width:0.5;" x1="31.5" x2="160.042" y1="303.2969" y2="303.2969"/><text fill="#000000" font-family="sans-serif" font-size="14" lengthAdjust="spacing" textLength="118.542" x="36.5" y="320.292">tipo = "Mensual"</text><text fill="#000000" font-family="sans-serif" font-size="14" lengthAdjust="spacing" textLength="97.4463" x="36.5" y="336.5889">saldo = "$30"</text></g><g id="elem_Tarifa1"><rect fill="#F1F1F1" height="60.8906" style="stroke:#181818;stroke-width:0.5;" width="123.2002" x="39.5" y="421"/><text fill="#000000" font-family="sans-serif" font-size="14" lengthAdjust="spacing" textLength="49.1914" x="76.5044" y="435.9951">Tarifa1</text><line style="stroke:#181818;stroke-width:0.5;" x1="40.5" x2="161.7002" y1="441.2969" y2="441.2969"/><text fill="#000000" font-family="sans-serif" font-size="14" lengthAdjust="spacing" textLength="99.627" x="45.5" y="458.292">tipo = "&#218;nica"</text><text fill="#000000" font-family="sans-serif" font-size="14" lengthAdjust="spacing" textLength="111.2002" x="45.5" y="474.5889">costo = "$1.50"</text></g><g id="elem_Estacion1"><rect fill="#F1F1F1" height="60.8906" style="stroke:#181818;stroke-width:0.5;" width="225.6572" x="457" y="421"/><text fill="#000000" font-family="sans-serif" font-size="14" lengthAdjust="spacing" textLength="68.1406" x="535.7583" y="435.9951">Estacion1</text><line style="stroke:#181818;stroke-width:0.5;" x1="458" x2="681.6572" y1="441.2969" y2="441.2969"/><text fill="#000000" font-family="sans-serif" font-size="14" lengthAdjust="spacing" textLength="202.501" x="463" y="458.292">nombre = "Estaci&#243;n Central"</text><text fill="#000000" font-family="sans-serif" font-size="14" lengthAdjust="spacing" textLength="213.6572" x="463" y="474.5889">ubicacion = "Centro Hist&#243;rico"</text></g><g id="elem_Estacion2"><rect fill="#F1F1F1" height="60.8906" style="stroke:#181818;stroke-width:0.5;" width="222.793" x="198.5" y="421"/><text fill="#000000" font-family="sans-serif" font-size="14" lengthAdjust="spacing" textLength="68.1406" x="275.8262" y="435.9951">Estacion2</text><line style="stroke:#181818;stroke-width:0.5;" x1="199.5" x2="420.293" y1="441.2969" y2="441.2969"/><text fill="#000000" font-family="sans-serif" font-size="14" lengthAdjust="spacing" textLength="190.4219" x="204.5" y="458.292">nombre = "Estaci&#243;n Norte"</text><text fill="#000000" font-family="sans-serif" font-size="14" lengthAdjust="spacing" textLength="210.793" x="204.5" y="474.5889">ubicacion = "Colonia Escal&#243;n"</text></g><!--link Ruta1 to Estacion1--><g id="link_Ruta1_Estacion1"><path codeLine="43" d="M367.2,344.01 C410.49,366.74 464.7777,395.2509 508.1477,418.0209 " fill="none" id="Ruta1-to-Estacion1" style="stroke:#181818;stroke-width:1.0;"/><polygon fill="#181818" points="513.46,420.81,507.3509,413.0848,509.033,418.4858,503.6321,420.168,513.46,420.81" style="stroke:#181818;stroke-width:1.0;"/><text fill="#000000" font-family="sans-serif" font-size="13" lengthAdjust="spacing" textLength="46.541" x="457" y="387.0669">incluye</text></g><!--link Ruta1 to Estacion2--><g id="link_Ruta1_Estacion2"><path codeLine="44" d="M310.78,344.01 C310.62,366.67 310.4348,391.8202 310.2648,414.5802 " fill="none" id="Ruta1-to-Estacion2" style="stroke:#181818;stroke-width:1.0;"/><polygon fill="#181818" points="310.22,420.58,314.2871,411.6101,310.2573,415.5801,306.2873,411.5504,310.22,420.58" style="stroke:#181818;stroke-width:1.0;"/><text fill="#000000" font-family="sans-serif" font-size="13" lengthAdjust="spacing" textLength="46.541" x="311" y="387.0669">incluye</text></g><!--link Ruta1 to Tarifa1--><g id="link_Ruta1_Tarifa1"><path codeLine="45" d="M265.43,344.01 C230.33,366.74 187.0466,394.7792 151.8766,417.5492 " fill="none" id="Ruta1-to-Tarifa1" style="stroke:#181818;stroke-width:1.0;"/><polygon fill="#181818" points="146.84,420.81,156.5687,419.2765,151.0371,418.0927,152.221,412.5611,146.84,420.81" style="stroke:#181818;stroke-width:1.0;"/><text fill="#000000" font-family="sans-serif" font-size="13" lengthAdjust="spacing" textLength="32.9443" x="220" y="387.0669">tiene</text></g><!--link Vehiculo1 to Ruta1--><g id="link_Vehiculo1_Ruta1"><path codeLine="46" d="M311,206.01 C311,228.67 311,253.82 311,276.58 " fill="none" id="Vehiculo1-to-Ruta1" style="stroke:#181818;stroke-width:1.0;"/><polygon fill="#181818" points="311,282.58,315,273.58,311,277.58,307,273.58,311,282.58" style="stroke:#181818;stroke-width:1.0;"/><text fill="#000000" font-family="sans-serif" font-size="13" lengthAdjust="spacing" textLength="34.874" x="312" y="249.0669">sigue</text></g><!--link Conductor1 to Vehiculo1--><g id="link_Conductor1_Vehiculo1"><path codeLine="47" d="M311,68.01 C311,90.67 311,115.82 311,138.58 " fill="none" id="Conductor1-to-Vehiculo1" style="stroke:#181818;stroke-width:1.0;"/><polygon fill="#181818" points="311,144.58,315,135.58,311,139.58,307,135.58,311,144.58" style="stroke:#181818;stroke-width:1.0;"/><text fill="#000000" font-family="sans-serif" font-size="13" lengthAdjust="spacing" textLength="37.5146" x="312" y="111.0669">opera</text></g><!--link Pasajero1 to Ruta1--><g id="link_Pasajero1_Ruta1"><path codeLine="48" d="M144.22,206.01 C179.82,228.74 223.7722,256.8122 259.4522,279.5822 " fill="none" id="Pasajero1-to-Ruta1" style="stroke:#181818;stroke-width:1.0;"/><polygon fill="#181818" points="264.51,282.81,259.0751,274.5965,260.2951,280.1202,254.7714,281.3402,264.51,282.81" style="stroke:#181818;stroke-width:1.0;"/><text fill="#000000" font-family="sans-serif" font-size="13" lengthAdjust="spacing" textLength="38.9619" x="219" y="249.0669">utiliza</text></g><!--link Pasajero1 to Abono1--><g id="link_Pasajero1_Abono1"><path codeLine="49" d="M97.57,206.01 C97.23,228.67 96.857,253.8206 96.527,276.5806 " fill="none" id="Pasajero1-to-Abono1" style="stroke:#181818;stroke-width:1.0;"/><polygon fill="#181818" points="96.44,282.58,100.5701,273.6389,96.5125,277.5805,92.5709,273.523,96.44,282.58" style="stroke:#181818;stroke-width:1.0;"/><text fill="#000000" font-family="sans-serif" font-size="13" lengthAdjust="spacing" textLength="49.3276" x="99" y="249.0669">compra</text></g><!--link Abono1 to Tarifa1--><g id="link_Abono1_Tarifa1"><path codeLine="50" d="M97.08,344.01 C97.92,366.67 98.8387,391.8241 99.6787,414.5841 " fill="none" id="Abono1-to-Tarifa1" style="stroke:#181818;stroke-width:1.0;"/><polygon fill="#181818" points="99.9,420.58,103.5653,411.4386,99.7156,415.5834,95.5708,411.7337,99.9,420.58" style="stroke:#181818;stroke-width:1.0;"/><text fill="#000000" font-family="sans-serif" font-size="13" lengthAdjust="spacing" textLength="43.5449" x="100" y="387.0669">liquida</text></g><!--SRC=[VP9BJiCm54NdMOLLCGrgMied4aXjLS40AeGGSyTvK1VRh_WpQ14ROGUCkuHi32TkgFiHcSNttQFhTptZ9H2G2xia4cG1sYG95dDWbZmvIpFocH3_API51d9DElKf6OEo6jCfQWkTPg3anbB5EArdiW5vbvtawm_r0ZFEdC0MP_a2wy6HCy4kgTNrH6CVZjAirp-B0MDKfMCMzM6WCTK23RcjrX9MWIOuWpRBVNfrUN4-Y66FrD0vQ3na3HKbZzMFRa6y71QeC8IQfjskpnMJ6dN_KW-WZACY40mLPNDwqk_6pcUg-IlTjrRVYZCQd0oD3SxiTB3ZdVXLCuxgC7zGghKA3RKXNE6fjQFPLzCTkVE5LMk_T3o6xls3ZbhV1QD0vPS-COmAFzXmmoDAqvieTKwuOi8juOZQEwgssyhzfa11idrFjHhcScBucuCaUYgrk1tD2Iv0qsHRVsnsbWk-sbSt1UU-3Rdmtit_RYR1FnmlwIy0]--></g></svg>