<svg xmlns="http://www.w3.org/2000/svg" xmlns:xlink="http://www.w3.org/1999/xlink" contentStyleType="text/css" height="524px" preserveAspectRatio="none" style="width:333px;height:524px;background:#FFFFFF;" version="1.1" viewBox="0 0 333 524" width="333px" zoomAndPan="magnify"><defs/><g><ellipse cx="122.5" cy="16" fill="#222222" rx="10" ry="10" style="stroke:#222222;stroke-width:1.0;"/><g id="Reportada"><rect fill="#F1F1F1" height="50" rx="12.5" ry="12.5" style="stroke:#181818;stroke-width:0.5;" width="93.083" x="76" y="87"/><line style="stroke:#181818;stroke-width:0.5;" x1="76" x2="169.083" y1="113.2969" y2="113.2969"/><text fill="#000000" font-family="sans-serif" font-size="14" lengthAdjust="spacing" textLength="73.083" x="86" y="104.9951">Reportada</text></g><g id="EnProceso"><rect fill="#F1F1F1" height="50" rx="12.5" ry="12.5" style="stroke:#181818;stroke-width:0.5;" width="92.6523" x="76" y="214"/><line style="stroke:#181818;stroke-width:0.5;" x1="76" x2="168.6523" y1="240.2969" y2="240.2969"/><text fill="#000000" font-family="sans-serif" font-size="14" lengthAdjust="spacing" textLength="72.6523" x="86" y="231.9951">EnProceso</text></g><g id="Resuelta"><rect fill="#F1F1F1" height="50" rx="12.5" ry="12.5" style="stroke:#181818;stroke-width:0.5;" width="81.0791" x="7" y="341"/><line style="stroke:#181818;stroke-width:0.5;" x1="7" x2="88.0791" y1="367.2969" y2="367.2969"/><text fill="#000000" font-family="sans-serif" font-size="14" lengthAdjust="spacing" textLength="61.0791" x="17" y="358.9951">Resuelta</text></g><g id="Cerrada"><rect fill="#F1F1F1" height="50" rx="12.5" ry="12.5" style="stroke:#181818;stroke-width:0.5;" width="75.9453" x="82.5" y="468"/><line style="stroke:#181818;stroke-width:0.5;" x1="82.5" x2="158.4453" y1="494.2969" y2="494.2969"/><text fill="#000000" font-family="sans-serif" font-size="14" lengthAdjust="spacing" textLength="55.9453" x="92.5" y="485.9951">Cerrada</text></g><!--link *start* to Reportada--><g id="link_*start*_Reportada"><path d="M122.5,26.01 C122.5,39.89 122.5,60.97 122.5,80.84 " fill="none" id="*start*-to-Reportada" style="stroke:#181818;stroke-width:1.0;"/><polygon fill="#181818" points="122.5,86.84,126.5,77.84,122.5,81.84,118.5,77.84,122.5,86.84" style="stroke:#181818;stroke-width:1.0;"/></g><!--link Reportada to EnProceso--><g id="link_Reportada_EnProceso"><path d="M122.5,137.1 C122.5,159.24 122.5,185.86 122.5,207.97 " fill="none" id="Reportada-to-EnProceso" style="stroke:#181818;stroke-width:1.0;"/><polygon fill="#181818" points="122.5,213.97,126.5,204.97,122.5,208.97,118.5,204.97,122.5,213.97" style="stroke:#181818;stroke-width:1.0;"/><text fill="#000000" font-family="sans-serif" font-size="13" lengthAdjust="spacing" textLength="108.5386" x="123.5" y="180.0669">asignar atenci&#243;n</text></g><!--link EnProceso to Resuelta--><g id="link_EnProceso_Resuelta"><path d="M77.7,264.08 C66.94,272.12 56.76,282.11 50.5,294 C42.97,308.3 41.8624,320.5807 43.0624,335.0007 " fill="none" id="EnProceso-to-Resuelta" style="stroke:#181818;stroke-width:1.0;"/><polygon fill="#181818" points="43.56,340.98,46.7998,331.6793,43.1453,335.9972,38.8274,332.3427,43.56,340.98" style="stroke:#181818;stroke-width:1.0;"/><text fill="#000000" font-family="sans-serif" font-size="13" lengthAdjust="spacing" textLength="118.8916" x="51.5" y="307.0669">resolver problema</text></g><!--link EnProceso to Cerrada--><g id="link_EnProceso_Cerrada"><path d="M153.39,264.15 C161.87,272.58 169.97,282.77 174.5,294 C198.43,353.36 198.99,378.87 174.5,438 C169.83,449.27 165.8762,455.2526 157.1662,463.6226 " fill="none" id="EnProceso-to-Cerrada" style="stroke:#181818;stroke-width:1.0;"/><polygon fill="#181818" points="152.84,467.78,162.1009,464.4281,156.4452,464.3155,156.5578,458.6598,152.84,467.78" style="stroke:#181818;stroke-width:1.0;"/><text fill="#000000" font-family="sans-serif" font-size="13" lengthAdjust="spacing" textLength="131.2061" x="194.5" y="370.5669">cierre sin resoluci&#243;n</text></g><!--link Resuelta to Cerrada--><g id="link_Resuelta_Cerrada"><path d="M39.2,391 C35.68,405.41 33.94,423.67 41.5,438 C50.26,454.6 61.4462,464.1362 77.0562,472.8862 " fill="none" id="Resuelta-to-Cerrada" style="stroke:#181818;stroke-width:1.0;"/><polygon fill="#181818" points="82.29,475.82,76.3951,467.9301,77.9285,473.3752,72.4834,474.9086,82.29,475.82" style="stroke:#181818;stroke-width:1.0;"/><text fill="#000000" font-family="sans-serif" font-size="13" lengthAdjust="spacing" textLength="127.7148" x="42.5" y="434.0669">finalizaci&#243;n de caso</text></g><!--SRC=[NOqn3i9030Jxl69hf7mW1GrAZsWHXRaOPEcm8z-5Wc_b2NoCIquAWcwrdXsVTnUqxHud7iqp3THiQUrxFRe5JeOEbEIkvA3C6kGzQ_EzLaUQE6Ogg9SkFjankbqZF-WFFR3xyg93a18PIRIEfchUNB_qJPIYl6Y5C3029Vi0]--></g></svg>