<svg xmlns="http://www.w3.org/2000/svg" xmlns:xlink="http://www.w3.org/1999/xlink" contentStyleType="text/css" height="397px" preserveAspectRatio="none" style="width:160px;height:397px;background:#FFFFFF;" version="1.1" viewBox="0 0 160 397" width="160px" zoomAndPan="magnify"><defs/><g><ellipse cx="55" cy="16" fill="#222222" rx="10" ry="10" style="stroke:#222222;stroke-width:1.0;"/><g id="Planificada"><rect fill="#F1F1F1" height="50" rx="12.5" ry="12.5" style="stroke:#181818;stroke-width:0.5;" width="96.2344" x="7" y="87"/><line style="stroke:#181818;stroke-width:0.5;" x1="7" x2="103.2344" y1="113.2969" y2="113.2969"/><text fill="#000000" font-family="sans-serif" font-size="14" lengthAdjust="spacing" textLength="76.2344" x="17" y="104.9951">Planificada</text></g><g id="Activa"><rect fill="#F1F1F1" height="50" rx="12.5" ry="12.5" style="stroke:#181818;stroke-width:0.5;" width="63.5176" x="23" y="214"/><line style="stroke:#181818;stroke-width:0.5;" x1="23" x2="86.5176" y1="240.2969" y2="240.2969"/><text fill="#000000" font-family="sans-serif" font-size="14" lengthAdjust="spacing" textLength="43.5176" x="33" y="231.9951">Activa</text></g><g id="Finalizada"><rect fill="#F1F1F1" height="50" rx="12.5" ry="12.5" style="stroke:#181818;stroke-width:0.5;" width="90.5674" x="9.5" y="341"/><line style="stroke:#181818;stroke-width:0.5;" x1="9.5" x2="100.0674" y1="367.2969" y2="367.2969"/><text fill="#000000" font-family="sans-serif" font-size="14" lengthAdjust="spacing" textLength="70.5674" x="19.5" y="358.9951">Finalizada</text></g><!--link *start* to Planificada--><g id="link_*start*_Planificada"><path d="M55,26.01 C55,39.89 55,60.97 55,80.84 " fill="none" id="*start*-to-Planificada" style="stroke:#181818;stroke-width:1.0;"/><polygon fill="#181818" points="55,86.84,59,77.84,55,81.84,51,77.84,55,86.84" style="stroke:#181818;stroke-width:1.0;"/></g><!--link Planificada to Activa--><g id="link_Planificada_Activa"><path d="M55,137.1 C55,159.24 55,185.86 55,207.97 " fill="none" id="Planificada-to-Activa" style="stroke:#181818;stroke-width:1.0;"/><polygon fill="#181818" points="55,213.97,59,204.97,55,208.97,51,204.97,55,213.97" style="stroke:#181818;stroke-width:1.0;"/><text fill="#000000" font-family="sans-serif" font-size="13" lengthAdjust="spacing" textLength="70.313" x="56" y="180.0669">iniciar ruta</text></g><!--link Activa to Finalizada--><g id="link_Activa_Finalizada"><path d="M55,264.1 C55,286.24 55,312.86 55,334.97 " fill="none" id="Activa-to-Finalizada" style="stroke:#181818;stroke-width:1.0;"/><polygon fill="#181818" points="55,340.97,59,331.97,55,335.97,51,331.97,55,340.97" style="stroke:#181818;stroke-width:1.0;"/><text fill="#000000" font-family="sans-serif" font-size="13" lengthAdjust="spacing" textLength="96.8145" x="56" y="307.0669">completar ruta</text></g><!--SRC=[YzQALT3LjLC8o4dCoqpBJ4vCIUH2OeFb79DBCiiI5QmKClCoapCJYnIAIaiIkQ2Y80LkcNc9EPbL8FLM2idvkGKvgILGPG00]--></g></svg>