<svg xmlns="http://www.w3.org/2000/svg" xmlns:xlink="http://www.w3.org/1999/xlink" contentStyleType="text/css" height="397px" preserveAspectRatio="none" style="width:425px;height:397px;background:#FFFFFF;" version="1.1" viewBox="0 0 425 397" width="425px" zoomAndPan="magnify"><defs/><g><ellipse cx="121.85" cy="16" fill="#222222" rx="10" ry="10" style="stroke:#222222;stroke-width:1.0;"/><g id="Activo"><rect fill="#F1F1F1" height="50" rx="12.5" ry="12.5" style="stroke:#181818;stroke-width:0.5;" width="63.5039" x="89.85" y="87"/><line style="stroke:#181818;stroke-width:0.5;" x1="89.85" x2="153.3539" y1="113.2969" y2="113.2969"/><text fill="#000000" font-family="sans-serif" font-size="14" lengthAdjust="spacing" textLength="43.5039" x="99.85" y="104.9951">Activo</text></g><g id="Vencido"><rect fill="#F1F1F1" height="50" rx="12.5" ry="12.5" style="stroke:#181818;stroke-width:0.5;" width="76.1025" x="64.85" y="341"/><line style="stroke:#181818;stroke-width:0.5;" x1="64.85" x2="140.9525" y1="367.2969" y2="367.2969"/><text fill="#000000" font-family="sans-serif" font-size="14" lengthAdjust="spacing" textLength="56.1025" x="74.85" y="358.9951">Vencido</text></g><g id="Usado"><rect fill="#F1F1F1" height="50" rx="12.5" ry="12.5" style="stroke:#181818;stroke-width:0.5;" width="63.5723" x="131.85" y="214"/><line style="stroke:#181818;stroke-width:0.5;" x1="131.85" x2="195.4223" y1="240.2969" y2="240.2969"/><text fill="#000000" font-family="sans-serif" font-size="14" lengthAdjust="spacing" textLength="43.5723" x="141.85" y="231.9951">Usado</text></g><!--link *start* to Activo--><g id="link_*start*_Activo"><path d="M121.85,26.01 C121.85,39.89 121.85,60.97 121.85,80.84 " fill="none" id="*start*-to-Activo" style="stroke:#181818;stroke-width:1.0;"/><polygon fill="#181818" points="121.85,86.84,125.85,77.84,121.85,81.84,117.85,77.84,121.85,86.84" style="stroke:#181818;stroke-width:1.0;"/></g><!--link Activo to Vencido--><g id="link_Activo_Vencido"><path d="M89.48,128.95 C72.85,138.33 53.13,151.41 38.85,167 C22.87,184.45 19.58,191.04 13.85,214 C8.47,235.56 6,243.21 13.85,264 C25.5,294.83 46.8209,318.359 67.6709,336.849 " fill="none" id="Activo-to-Vencido" style="stroke:#181818;stroke-width:1.0;"/><polygon fill="#181818" points="72.16,340.83,68.0804,331.8658,68.4191,337.5125,62.7724,337.8513,72.16,340.83" style="stroke:#181818;stroke-width:1.0;"/><text fill="#000000" font-family="sans-serif" font-size="13" lengthAdjust="spacing" textLength="99.5186" x="14.85" y="243.5669">expira vigencia</text></g><!--link Vencido to Activo--><g id="link_Vencido_Activo"><path d="M140.99,365.74 C183.2,364.24 249.53,354.52 281.85,311 C320.73,258.66 295.84,216.88 253.85,167 C228.66,137.07 190.1656,124.6862 159.8856,118.6862 " fill="none" id="Vencido-to-Activo" style="stroke:#181818;stroke-width:1.0;"/><polygon fill="#181818" points="154,117.52,162.0509,123.1931,158.9046,118.4919,163.6058,115.3456,154,117.52" style="stroke:#181818;stroke-width:1.0;"/><text fill="#000000" font-family="sans-serif" font-size="13" lengthAdjust="spacing" textLength="116.1494" x="301.85" y="243.5669">recargar y activar</text></g><!--link Activo to Usado--><g id="link_Activo_Usado"><path d="M89.71,127.27 C64.77,140.48 36.63,161.44 50.85,184 C55.58,191.5 94.5748,209.0007 126.2948,222.4307 " fill="none" id="Activo-to-Usado" style="stroke:#181818;stroke-width:1.0;"/><polygon fill="#181818" points="131.82,224.77,125.0918,217.5776,127.2157,222.8206,121.9727,224.9445,131.82,224.77" style="stroke:#181818;stroke-width:1.0;"/><text fill="#000000" font-family="sans-serif" font-size="13" lengthAdjust="spacing" textLength="94.542" x="51.85" y="180.0669">viaje realizado</text></g><!--link Usado to Activo--><g id="link_Usado_Activo"><path d="M161.33,213.85 C159.4,199.89 156.15,182.14 150.85,167 C147.3,156.86 144.9625,151.5445 139.8925,142.4945 " fill="none" id="Usado-to-Activo" style="stroke:#181818;stroke-width:1.0;"/><polygon fill="#181818" points="136.96,137.26,137.8691,147.0668,139.4038,141.6221,144.8484,143.1568,136.96,137.26" style="stroke:#181818;stroke-width:1.0;"/><text fill="#000000" font-family="sans-serif" font-size="13" lengthAdjust="spacing" textLength="89.229" x="155.85" y="180.0669">renovar saldo</text></g><!--link Usado to Vencido--><g id="link_Usado_Vencido"><path d="M131.72,258.51 C119.35,267.49 106.59,279.5 99.85,294 C93.09,308.55 92.9346,320.72 95.4346,334.99 " fill="none" id="Usado-to-Vencido" style="stroke:#181818;stroke-width:1.0;"/><polygon fill="#181818" points="96.47,340.9,98.8569,331.3448,95.6072,335.975,90.9769,332.7253,96.47,340.9" style="stroke:#181818;stroke-width:1.0;"/><text fill="#000000" font-family="sans-serif" font-size="13" lengthAdjust="spacing" textLength="176.9473" x="100.85" y="307.0669">expira vigencia sin renovar</text></g><!--SRC=[YzQALT3LjLDmJ2x9BCldWb1WaR3KlEJCb7m5AuNKYeBCeaI5iinqa50YigBGuaImahBCnAnKXQBKn9pCAg085qGSOJ1GIL5gNdvPOf52SM8EYWASzYWKP-R1T771LA4PcPnOb0uqir8X4IIMM0G0]--></g></svg>