<svg xmlns="http://www.w3.org/2000/svg" xmlns:xlink="http://www.w3.org/1999/xlink" contentStyleType="text/css" height="397px" preserveAspectRatio="none" style="width:211px;height:397px;background:#FFFFFF;" version="1.1" viewBox="0 0 211 397" width="211px" zoomAndPan="magnify"><defs/><g><ellipse cx="92.5" cy="16" fill="#222222" rx="10" ry="10" style="stroke:#222222;stroke-width:1.0;"/><g id="EsperandoTransporte"><rect fill="#F1F1F1" height="50" rx="12.5" ry="12.5" style="stroke:#181818;stroke-width:0.5;" width="170.6641" x="7" y="87"/><line style="stroke:#181818;stroke-width:0.5;" x1="7" x2="177.6641" y1="113.2969" y2="113.2969"/><text fill="#000000" font-family="sans-serif" font-size="14" lengthAdjust="spacing" textLength="150.6641" x="17" y="104.9951">EsperandoTransporte</text></g><g id="EnRuta"><rect fill="#F1F1F1" height="50" rx="12.5" ry="12.5" style="stroke:#181818;stroke-width:0.5;" width="70.3877" x="57.5" y="214"/><line style="stroke:#181818;stroke-width:0.5;" x1="57.5" x2="127.8877" y1="240.2969" y2="240.2969"/><text fill="#000000" font-family="sans-serif" font-size="14" lengthAdjust="spacing" textLength="50.3877" x="67.5" y="231.9951">EnRuta</text></g><g id="Finalizado"><rect fill="#F1F1F1" height="50" rx="12.5" ry="12.5" style="stroke:#181818;stroke-width:0.5;" width="90.5537" x="47" y="341"/><line style="stroke:#181818;stroke-width:0.5;" x1="47" x2="137.5537" y1="367.2969" y2="367.2969"/><text fill="#000000" font-family="sans-serif" font-size="14" lengthAdjust="spacing" textLength="70.5537" x="57" y="358.9951">Finalizado</text></g><!--link *start* to EsperandoTransporte--><g id="link_*start*_EsperandoTransporte"><path d="M92.5,26.01 C92.5,39.89 92.5,60.97 92.5,80.84 " fill="none" id="*start*-to-EsperandoTransporte" style="stroke:#181818;stroke-width:1.0;"/><polygon fill="#181818" points="92.5,86.84,96.5,77.84,92.5,81.84,88.5,77.84,92.5,86.84" style="stroke:#181818;stroke-width:1.0;"/></g><!--link EsperandoTransporte to EnRuta--><g id="link_EsperandoTransporte_EnRuta"><path d="M92.5,137.1 C92.5,159.24 92.5,185.86 92.5,207.97 " fill="none" id="EsperandoTransporte-to-EnRuta" style="stroke:#181818;stroke-width:1.0;"/><polygon fill="#181818" points="92.5,213.97,96.5,204.97,92.5,208.97,88.5,204.97,92.5,213.97" style="stroke:#181818;stroke-width:1.0;"/><text fill="#000000" font-family="sans-serif" font-size="13" lengthAdjust="spacing" textLength="109.7065" x="93.5" y="180.0669">abordar veh&#237;culo</text></g><!--link EnRuta to Finalizado--><g id="link_EnRuta_Finalizado"><path d="M92.5,264.1 C92.5,286.24 92.5,312.86 92.5,334.97 " fill="none" id="EnRuta-to-Finalizado" style="stroke:#181818;stroke-width:1.0;"/><polygon fill="#181818" points="92.5,340.97,96.5,331.97,92.5,335.97,88.5,331.97,92.5,340.97" style="stroke:#181818;stroke-width:1.0;"/><text fill="#000000" font-family="sans-serif" font-size="13" lengthAdjust="spacing" textLength="100.9404" x="93.5" y="307.0669">llegar a destino</text></g><!--SRC=[YzQALT3LjLDmBIv8BKhCIyaF0PB51Vb59QbSMCGWQlE2IaiI5QmK4fFoYr8IYnJAKZCEhqqkpSddWag1LBbbvYNcP5ObfkG3LURafAO35IOgfAGMbsJcvGC0]--></g></svg>