<svg xmlns="http://www.w3.org/2000/svg" xmlns:xlink="http://www.w3.org/1999/xlink" contentStyleType="text/css" height="348px" preserveAspectRatio="none" style="width:577px;height:348px;background:#FFFFFF;" version="1.1" viewBox="0 0 577 348" width="577px" zoomAndPan="magnify"><defs/><g><!--class Ayuntamiento--><g id="elem_Ayuntamiento"><rect codeLine="4" fill="#F1F1F1" height="26.2969" id="Ayuntamiento" rx="2.5" ry="2.5" style="stroke:#181818;stroke-width:0.5;" width="104.7451" x="115" y="7"/><text fill="#000000" font-family="sans-serif" font-size="14" lengthAdjust="spacing" textLength="98.7451" x="118" y="24.9951">Ayuntamiento</text></g><!--class Incidencia--><g id="elem_Incidencia"><rect codeLine="5" fill="#F1F1F1" height="26.2969" id="Incidencia" rx="2.5" ry="2.5" style="stroke:#181818;stroke-width:0.5;" width="77.1279" x="7" y="316"/><text fill="#000000" font-family="sans-serif" font-size="14" lengthAdjust="spacing" textLength="71.1279" x="10" y="333.9951">Incidencia</text></g><!--class Ruta--><g id="elem_Ruta"><rect codeLine="6" fill="#F1F1F1" height="26.2969" id="Ruta" rx="2.5" ry="2.5" style="stroke:#181818;stroke-width:0.5;" width="38.6689" x="307" y="110"/><text fill="#000000" font-family="sans-serif" font-size="14" lengthAdjust="spacing" textLength="32.6689" x="310" y="127.9951">Ruta</text></g><!--class Horario--><g id="elem_Horario"><rect codeLine="7" fill="#F1F1F1" height="26.2969" id="Horario" rx="2.5" ry="2.5" style="stroke:#181818;stroke-width:0.5;" width="57.6387" x="356.5" y="316"/><text fill="#000000" font-family="sans-serif" font-size="14" lengthAdjust="spacing" textLength="51.6387" x="359.5" y="333.9951">Horario</text></g><!--class Estacion--><g id="elem_Estacion"><rect codeLine="8" fill="#F1F1F1" height="26.2969" id="Estacion" rx="2.5" ry="2.5" style="stroke:#181818;stroke-width:0.5;" width="65.2334" x="379" y="213"/><text fill="#000000" font-family="sans-serif" font-size="14" lengthAdjust="spacing" textLength="59.2334" x="382" y="230.9951">Estacion</text></g><!--class Vehiculo--><g id="elem_Vehiculo"><rect codeLine="9" fill="#F1F1F1" height="26.2969" id="Vehiculo" rx="2.5" ry="2.5" style="stroke:#181818;stroke-width:0.5;" width="65.9785" x="153.5" y="213"/><text fill="#000000" font-family="sans-serif" font-size="14" lengthAdjust="spacing" textLength="59.9785" x="156.5" y="230.9951">Vehiculo</text></g><!--class Conductor--><g id="elem_Conductor"><rect codeLine="10" fill="#F1F1F1" height="26.2969" id="Conductor" rx="2.5" ry="2.5" style="stroke:#181818;stroke-width:0.5;" width="78.4814" x="115.5" y="110"/><text fill="#000000" font-family="sans-serif" font-size="14" lengthAdjust="spacing" textLength="72.4814" x="118.5" y="127.9951">Conductor</text></g><!--class Pasajero--><g id="elem_Pasajero"><rect codeLine="11" fill="#F1F1F1" height="26.2969" id="Pasajero" rx="2.5" ry="2.5" style="stroke:#181818;stroke-width:0.5;" width="65.7188" x="321.5" y="7"/><text fill="#000000" font-family="sans-serif" font-size="14" lengthAdjust="spacing" textLength="59.7188" x="324.5" y="24.9951">Pasajero</text></g><!--class Abono--><g id="elem_Abono"><rect codeLine="12" fill="#F1F1F1" height="26.2969" id="Abono" rx="2.5" ry="2.5" style="stroke:#181818;stroke-width:0.5;" width="50.4678" x="503.5" y="110"/><text fill="#000000" font-family="sans-serif" font-size="14" lengthAdjust="spacing" textLength="44.4678" x="506.5" y="127.9951">Abono</text></g><!--class Tarifa--><g id="elem_Tarifa"><rect codeLine="13" fill="#F1F1F1" height="26.2969" id="Tarifa" rx="2.5" ry="2.5" style="stroke:#181818;stroke-width:0.5;" width="46.2842" x="497.5" y="213"/><text fill="#000000" font-family="sans-serif" font-size="14" lengthAdjust="spacing" textLength="40.2842" x="500.5" y="230.9951">Tarifa</text></g><!--class Bus--><g id="elem_Bus"><rect codeLine="14" fill="#F1F1F1" height="26.2969" id="Bus" rx="2.5" ry="2.5" style="stroke:#181818;stroke-width:0.5;" width="31.7715" x="124.5" y="316"/><text fill="#000000" font-family="sans-serif" font-size="14" lengthAdjust="spacing" textLength="25.7715" x="127.5" y="333.9951">Bus</text></g><!--class Tren--><g id="elem_Tren"><rect codeLine="15" fill="#F1F1F1" height="26.2969" id="Tren" rx="2.5" ry="2.5" style="stroke:#181818;stroke-width:0.5;" width="37.7939" x="191.5" y="316"/><text fill="#000000" font-family="sans-serif" font-size="14" lengthAdjust="spacing" textLength="31.7939" x="194.5" y="333.9951">Tren</text></g><!--class Metro--><g id="elem_Metro"><rect codeLine="16" fill="#F1F1F1" height="26.2969" id="Metro" rx="2.5" ry="2.5" style="stroke:#181818;stroke-width:0.5;" width="46.5029" x="265" y="316"/><text fill="#000000" font-family="sans-serif" font-size="14" lengthAdjust="spacing" textLength="40.5029" x="268" y="333.9951">Metro</text></g><!--link Ayuntamiento to Incidencia--><g id="link_Ayuntamiento_Incidencia"><path codeLine="18" d="M155.27,33.13 C139.65,49.29 112.81,79.41 97.5,110 C61.27,182.37 50.1293,275.0743 47.0193,309.5343 " fill="none" id="Ayuntamiento-to-Incidencia" style="stroke:#181818;stroke-width:1.0;"/><polygon fill="#181818" points="46.48,315.51,51.2728,306.906,46.9294,310.5302,43.3051,306.1869,46.48,315.51" style="stroke:#181818;stroke-width:1.0;"/><text fill="#000000" font-family="sans-serif" font-size="13" lengthAdjust="spacing" textLength="55.8911" x="76.5" y="179.0669">gestiona</text></g><!--link Ayuntamiento to Ruta--><g id="link_Ayuntamiento_Ruta"><path codeLine="19" d="M186.14,33.03 C204.7,45 234.02,63.84 259.5,80 C275.5,90.15 288.6295,98.3841 302.0295,106.7441 " fill="none" id="Ayuntamiento-to-Ruta" style="stroke:#181818;stroke-width:1.0;"/><polygon fill="#181818" points="307.12,109.92,301.6014,101.7625,302.8779,107.2734,297.3669,108.5499,307.12,109.92" style="stroke:#181818;stroke-width:1.0;"/><text fill="#000000" font-family="sans-serif" font-size="13" lengthAdjust="spacing" textLength="69.5259" x="260.5" y="76.0669">administra</text></g><!--link Ruta to Estacion--><g id="link_Ruta_Estacion"><path codeLine="20" d="M332.4,136.03 C338.83,148.5 349.9,168.2 362.5,183 C372.08,194.26 380.0716,201.3993 390.1516,209.2293 " fill="none" id="Ruta-to-Estacion" style="stroke:#181818;stroke-width:1.0;"/><polygon fill="#181818" points="394.89,212.91,390.2362,204.23,390.9413,209.8427,385.3286,210.5479,394.89,212.91" style="stroke:#181818;stroke-width:1.0;"/><text fill="#000000" font-family="sans-serif" font-size="13" lengthAdjust="spacing" textLength="57.1733" x="363.5" y="179.0669">incluye *</text></g><!--link Ruta to Horario--><g id="link_Ruta_Horario"><path codeLine="21" d="M324.06,136.09 C320.27,157.43 314.47,202.91 325.5,239 C334.92,269.83 354.9722,295.202 369.6022,311.282 " fill="none" id="Ruta-to-Horario" style="stroke:#181818;stroke-width:1.0;"/><polygon fill="#181818" points="373.64,315.72,370.5419,306.3711,370.2751,312.0217,364.6246,311.7549,373.64,315.72" style="stroke:#181818;stroke-width:1.0;"/><text fill="#000000" font-family="sans-serif" font-size="13" lengthAdjust="spacing" textLength="34.874" x="326.5" y="230.5669">sigue</text></g><!--link Ruta to Vehiculo--><g id="link_Ruta_Vehiculo"><path codeLine="22" d="M306.89,129.3 C286.29,135.57 253.72,147.56 230.5,166 C214.09,179.03 203.6448,194.3808 196.1048,207.4708 " fill="none" id="Ruta-to-Vehiculo" style="stroke:#181818;stroke-width:1.0;"/><polygon fill="#181818" points="193.11,212.67,201.0683,206.8678,195.6057,208.3374,194.1361,202.8747,193.11,212.67" style="stroke:#181818;stroke-width:1.0;"/><text fill="#000000" font-family="sans-serif" font-size="13" lengthAdjust="spacing" textLength="49.5942" x="231.5" y="179.0669">utiliza *</text></g><!--link Vehiculo to Incidencia--><g id="link_Vehiculo_Incidencia"><path codeLine="23" d="M157.13,239.03 C140.61,246.47 120.06,256.9 103.5,269 C84.71,282.73 70.3582,298.1319 59.4982,310.9519 " fill="none" id="Vehiculo-to-Incidencia" style="stroke:#181818;stroke-width:1.0;"/><polygon fill="#181818" points="55.62,315.53,64.4894,311.2483,58.8518,311.7149,58.3852,306.0773,55.62,315.53" style="stroke:#181818;stroke-width:1.0;"/><text fill="#000000" font-family="sans-serif" font-size="13" lengthAdjust="spacing" textLength="47.9565" x="104.5" y="282.0669">reporta</text></g><!--link Conductor to Vehiculo--><g id="link_Conductor_Vehiculo"><path codeLine="24" d="M151.19,136.16 C148.48,148.38 145.91,167.57 151.5,183 C155.7,194.6 160.3819,201.0432 168.1819,208.7132 " fill="none" id="Conductor-to-Vehiculo" style="stroke:#181818;stroke-width:1.0;"/><polygon fill="#181818" points="172.46,212.92,168.8473,203.7576,168.8949,209.4143,163.2382,209.4618,172.46,212.92" style="stroke:#181818;stroke-width:1.0;"/><text fill="#000000" font-family="sans-serif" font-size="13" lengthAdjust="spacing" textLength="37.5146" x="152.5" y="179.0669">opera</text></g><!--link Pasajero to Ruta--><g id="link_Pasajero_Ruta"><path codeLine="25" d="M351.07,33.38 C345.66,52.87 336.8437,84.6883 331.4737,104.0483 " fill="none" id="Pasajero-to-Ruta" style="stroke:#181818;stroke-width:1.0;"/><polygon fill="#181818" points="329.87,109.83,336.13,102.2266,331.2064,105.0119,328.4211,100.0883,329.87,109.83" style="stroke:#181818;stroke-width:1.0;"/><text fill="#000000" font-family="sans-serif" font-size="13" lengthAdjust="spacing" textLength="38.9619" x="342.5" y="76.0669">utiliza</text></g><!--link Pasajero to Abono--><g id="link_Pasajero_Abono"><path codeLine="26" d="M375.49,33.18 C409.02,52.65 469.1106,87.5283 502.5206,106.9183 " fill="none" id="Pasajero-to-Abono" style="stroke:#181818;stroke-width:1.0;"/><polygon fill="#181818" points="507.71,109.93,501.9338,101.9528,503.3855,107.4202,497.9181,108.872,507.71,109.93" style="stroke:#181818;stroke-width:1.0;"/><text fill="#000000" font-family="sans-serif" font-size="13" lengthAdjust="spacing" textLength="49.3276" x="452.5" y="76.0669">compra</text></g><!--link Abono to Tarifa--><g id="link_Abono_Tarifa"><path codeLine="27" d="M527.52,136.38 C525.98,155.87 523.4758,187.4889 521.9358,206.8489 " fill="none" id="Abono-to-Tarifa" style="stroke:#181818;stroke-width:1.0;"/><polygon fill="#181818" points="521.46,212.83,526.1611,204.1755,521.8565,207.8457,518.1863,203.5412,521.46,212.83" style="stroke:#181818;stroke-width:1.0;"/><text fill="#000000" font-family="sans-serif" font-size="13" lengthAdjust="spacing" textLength="43.5449" x="525.5" y="179.0669">liquida</text></g><!--link Ruta to Tarifa--><g id="link_Ruta_Tarifa"><path codeLine="28" d="M346.26,131.34 C366.54,139.12 398.82,152.16 425.5,166 C453.42,180.48 479.07,196.9134 497.79,209.4934 " fill="none" id="Ruta-to-Tarifa" style="stroke:#181818;stroke-width:1.0;"/><polygon fill="#181818" points="502.77,212.84,497.5311,204.5001,498.62,210.0512,493.069,211.1401,502.77,212.84" style="stroke:#181818;stroke-width:1.0;"/><text fill="#000000" font-family="sans-serif" font-size="13" lengthAdjust="spacing" textLength="32.9443" x="455.5" y="179.0669">tiene</text></g><!--link Estacion to Horario--><g id="link_Estacion_Horario"><path codeLine="29" d="M408.31,239.38 C403.29,258.87 395.1175,290.6599 390.1275,310.0199 " fill="none" id="Estacion-to-Horario" style="stroke:#181818;stroke-width:1.0;"/><polygon fill="#181818" points="388.63,315.83,394.7497,308.1132,389.878,310.9882,387.0029,306.1165,388.63,315.83" style="stroke:#181818;stroke-width:1.0;"/><text fill="#000000" font-family="sans-serif" font-size="13" lengthAdjust="spacing" textLength="54.082" x="400.5" y="282.0669">muestra</text></g><!--reverse link Vehiculo to Bus--><g id="link_Vehiculo_Bus"><path codeLine="30" d="M173.397,255.76 C164.517,275.25 154.86,296.47 146.04,315.83 " fill="none" id="Vehiculo-backto-Bus" style="stroke:#181818;stroke-width:1.0;"/><polygon fill="none" points="180.86,239.38,167.937,253.2723,178.857,258.2476,180.86,239.38" style="stroke:#181818;stroke-width:1.0;"/></g><!--reverse link Vehiculo to Tren--><g id="link_Vehiculo_Tren"><path codeLine="31" d="M193.6003,256.8926 C198.2303,276.3826 203.01,296.47 207.61,315.83 " fill="none" id="Vehiculo-backto-Tren" style="stroke:#181818;stroke-width:1.0;"/><polygon fill="none" points="189.44,239.38,187.7627,258.2794,199.4378,255.5059,189.44,239.38" style="stroke:#181818;stroke-width:1.0;"/></g><!--reverse link Vehiculo to Metro--><g id="link_Vehiculo_Metro"><path codeLine="32" d="M211.7995,252.046 C231.4795,271.536 256.66,296.47 276.21,315.83 " fill="none" id="Vehiculo-backto-Metro" style="stroke:#181818;stroke-width:1.0;"/><polygon fill="none" points="199.01,239.38,207.5775,256.3092,216.0215,247.7829,199.01,239.38" style="stroke:#181818;stroke-width:1.0;"/></g><!--SRC=[PL7BJiGm3BpdAt96wWyWXBGW93WWeHNYdatDrYYFaZY7hlRZSRDnjsKlLJnZkpFZ0NlGu4UQj0T_W9JLC4CMatMGbRBEvAntKmbaF4AWsA2tOBcHFwO1-qBoV8t999JEbqp6OWoj_881RN72FiVG5qinjVh3PFC3IUZT8GPvV_BIR_d7Kya29v3Txq0ygTPoTTSzhiJgUts4J2p7tBRD5hZ1z1u3Paf6LMIcn0JJ6Amh4-YxAziCCvdnME1AY5bc2g73a-6n1RoHbc2CYMDSGlc_98x0gYIZjUYsVilLz9YqqOyyTobduX8bCmv_2_Ohemj3d0kenVVMfYzGyrcaFPoxhjvaYzJRRA5wepy0]--></g></svg>