<svg xmlns="http://www.w3.org/2000/svg" xmlns:xlink="http://www.w3.org/1999/xlink" contentStyleType="text/css" height="554px" preserveAspectRatio="none" style="width:108px;height:554px;background:#1B1B1B;" version="1.1" viewBox="0 0 108 554" width="108px" zoomAndPan="magnify"><defs/><g><rect fill="#1B1B1B" height="554" style="stroke:none;stroke-width:1.0;" width="108" x="0" y="0"/><ellipse cx="54.15" cy="16" fill="#222222" rx="10" ry="10" style="stroke:#222222;stroke-width:1.0;"/><g id="Esperando"><rect fill="#313139" height="50" rx="12.5" ry="12.5" style="stroke:#E7E7E7;stroke-width:0.5;" width="94.2998" x="7" y="86"/><line style="stroke:#E7E7E7;stroke-width:0.5;" x1="7" x2="101.2998" y1="112.2969" y2="112.2969"/><text fill="#FFFFFF" font-family="sans-serif" font-size="14" lengthAdjust="spacing" textLength="74.2998" x="17" y="103.9951">Esperando</text></g><g id="Subiendo"><rect fill="#313139" height="50" rx="12.5" ry="12.5" style="stroke:#E7E7E7;stroke-width:0.5;" width="85.4746" x="11.41" y="196"/><line style="stroke:#E7E7E7;stroke-width:0.5;" x1="11.41" x2="96.8846" y1="222.2969" y2="222.2969"/><text fill="#FFFFFF" font-family="sans-serif" font-size="14" lengthAdjust="spacing" textLength="65.4746" x="21.41" y="213.9951">Subiendo</text></g><g id="EnRuta"><rect fill="#313139" height="50" rx="12.5" ry="12.5" style="stroke:#E7E7E7;stroke-width:0.5;" width="70.3877" x="18.96" y="306"/><line style="stroke:#E7E7E7;stroke-width:0.5;" x1="18.96" x2="89.3477" y1="332.2969" y2="332.2969"/><text fill="#FFFFFF" font-family="sans-serif" font-size="14" lengthAdjust="spacing" textLength="50.3877" x="28.96" y="323.9951">EnRuta</text></g><g id="Bajando"><rect fill="#313139" height="50" rx="12.5" ry="12.5" style="stroke:#E7E7E7;stroke-width:0.5;" width="76.9775" x="15.66" y="416"/><line style="stroke:#E7E7E7;stroke-width:0.5;" x1="15.66" x2="92.6375" y1="442.2969" y2="442.2969"/><text fill="#FFFFFF" font-family="sans-serif" font-size="14" lengthAdjust="spacing" textLength="56.9775" x="25.66" y="433.9951">Bajando</text></g><ellipse cx="54.15" cy="537" fill="none" rx="11" ry="11" style="stroke:#222222;stroke-width:1.0;"/><ellipse cx="54.15" cy="537" fill="#222222" rx="6" ry="6" style="stroke:#222222;stroke-width:1.0;"/><!--link *start* to Esperando--><g id="link_*start*_Esperando"><path d="M54.15,26.26 C54.15,39.95 54.15,60.07 54.15,79.52 " fill="none" id="*start*-to-Esperando" style="stroke:#E7E7E7;stroke-width:1.0;"/><polygon fill="#E7E7E7" points="54.15,85.52,58.15,76.52,54.15,80.52,50.15,76.52,54.15,85.52" style="stroke:#E7E7E7;stroke-width:1.0;"/></g><!--link Esperando to Subiendo--><g id="link_Esperando_Subiendo"><path d="M54.15,136.24 C54.15,154.02 54.15,172.08 54.15,189.84 " fill="none" id="Esperando-to-Subiendo" style="stroke:#E7E7E7;stroke-width:1.0;"/><polygon fill="#E7E7E7" points="54.15,195.84,58.15,186.84,54.15,190.84,50.15,186.84,54.15,195.84" style="stroke:#E7E7E7;stroke-width:1.0;"/></g><!--link Subiendo to EnRuta--><g id="link_Subiendo_EnRuta"><path d="M54.15,246.24 C54.15,264.02 54.15,282.08 54.15,299.84 " fill="none" id="Subiendo-to-EnRuta" style="stroke:#E7E7E7;stroke-width:1.0;"/><polygon fill="#E7E7E7" points="54.15,305.84,58.15,296.84,54.15,300.84,50.15,296.84,54.15,305.84" style="stroke:#E7E7E7;stroke-width:1.0;"/></g><!--link EnRuta to Bajando--><g id="link_EnRuta_Bajando"><path d="M54.15,356.24 C54.15,374.02 54.15,392.08 54.15,409.84 " fill="none" id="EnRuta-to-Bajando" style="stroke:#E7E7E7;stroke-width:1.0;"/><polygon fill="#E7E7E7" points="54.15,415.84,58.15,406.84,54.15,410.84,50.15,406.84,54.15,415.84" style="stroke:#E7E7E7;stroke-width:1.0;"/></g><!--link Bajando to *end*--><g id="link_Bajando_*end*"><path d="M54.15,466.21 C54.15,485.57 54.15,505.75 54.15,519.9 " fill="none" id="Bajando-to-*end*" style="stroke:#E7E7E7;stroke-width:1.0;"/><polygon fill="#E7E7E7" points="54.15,525.9,58.15,516.9,54.15,520.9,50.15,516.9,54.15,525.9" style="stroke:#E7E7E7;stroke-width:1.0;"/></g><!--SRC=[YzQALT3LjLDmBIv8BKhCIyddue8pmHB1fKcPgM1n60kYFY-ej2GHg1XCWuMS4hCW1a0POC5ehLW0]--></g></svg>